<svg xmlns="http://www.w3.org/2000/svg" xmlns:xlink="http://www.w3.org/1999/xlink" xmlns:s="https://github.com/nturley/netlistsvg" width="261" height="136.5">
  <style>svg {
    stroke:#000;
    fill:none;
  }
  text {
    fill:#000;
    stroke:none;
    font-size:10px;
    font-weight: bold;
    font-family: "Courier New", monospace;
  }
  .nodelabel {
    text-anchor: middle;
  }
  .inputPortLabel {
    text-anchor: end;
  }
  .splitjoinBody {
    fill:#000;
  }</style>
  <g s:type="reduce_nor" transform="translate(148,84.5)" s:width="33" s:height="25" id="cell_$abc$86$auto$blifparse.cc:386:parse_blif$88">
    <s:alias val="$nor"/>
    <s:alias val="$reduce_nor"/>
    <s:alias val="$_NOR_"/>
    <s:alias val="$_ORNOT_"/>
    <path d="M0,25 L0,25 L15,25 A15 12.5 0 0 0 15,0 L0,0" class="cell_$abc$86$auto$blifparse.cc:386:parse_blif$88"/>
    <path d="M0,0 A30 25 0 0 1 0,25" class="cell_$abc$86$auto$blifparse.cc:386:parse_blif$88"/>
    <circle cx="34" cy="12.5" r="3" class="cell_$abc$86$auto$blifparse.cc:386:parse_blif$88"/>
    <g s:x="3" s:y="5" s:pid="A"/>
    <g s:x="3" s:y="20" s:pid="B"/>
    <g s:x="36" s:y="12.5" s:pid="Y"/>
  </g>
  <g s:type="reduce_nor" transform="translate(77,19.5)" s:width="33" s:height="25" id="cell_$abc$86$auto$blifparse.cc:386:parse_blif$89">
    <s:alias val="$nor"/>
    <s:alias val="$reduce_nor"/>
    <s:alias val="$_NOR_"/>
    <s:alias val="$_ORNOT_"/>
    <path d="M0,25 L0,25 L15,25 A15 12.5 0 0 0 15,0 L0,0" class="cell_$abc$86$auto$blifparse.cc:386:parse_blif$89"/>
    <path d="M0,0 A30 25 0 0 1 0,25" class="cell_$abc$86$auto$blifparse.cc:386:parse_blif$89"/>
    <circle cx="34" cy="12.5" r="3" class="cell_$abc$86$auto$blifparse.cc:386:parse_blif$89"/>
    <g s:x="3" s:y="5" s:pid="A"/>
    <g s:x="3" s:y="20" s:pid="B"/>
    <g s:x="36" s:y="12.5" s:pid="Y"/>
  </g>
  <g s:type="inputExt" transform="translate(80,94.5)" s:width="30" s:height="20" id="cell_S">
    <text x="15" y="-4" class="nodelabel cell_S" s:attribute="ref">S</text>
    <s:alias val="$_inputExt_"/>
    <path d="M0,0 L0,20 L15,20 L30,10 L15,0 Z" class="cell_S"/>
    <g s:x="28" s:y="10" s:pid="Y"/>
  </g>
  <g s:type="inputExt" transform="translate(12,29.5)" s:width="30" s:height="20" id="cell_R">
    <text x="15" y="-4" class="nodelabel cell_R" s:attribute="ref">R</text>
    <s:alias val="$_inputExt_"/>
    <path d="M0,0 L0,20 L15,20 L30,10 L15,0 Z" class="cell_R"/>
    <g s:x="28" s:y="10" s:pid="Y"/>
  </g>
  <g s:type="outputExt" transform="translate(219,22)" s:width="30" s:height="20" id="cell_Q">
    <text x="15" y="-4" class="nodelabel cell_Q" s:attribute="ref">Q</text>
    <s:alias val="$_outputExt_"/>
    <path d="M30,0 L30,20 L15,20 L0,10 L15,0 Z" class="cell_Q"/>
    <g s:x="0" s:y="10" s:pid="A"/>
  </g>
  <g s:type="outputExt" transform="translate(219,87)" s:width="30" s:height="20" id="cell_Q_not">
    <text x="15" y="-4" class="nodelabel cell_Q_not" s:attribute="ref">Q_not</text>
    <s:alias val="$_outputExt_"/>
    <path d="M30,0 L30,20 L15,20 L0,10 L15,0 Z" class="cell_Q_not"/>
    <g s:x="0" s:y="10" s:pid="A"/>
  </g>
  <line x1="113" x2="123" y1="32" y2="32" class="net_4"/>
  <line x1="123" x2="123" y1="32" y2="89.5" class="net_4"/>
  <circle cx="123" cy="32" r="2" style="fill:#000" class="net_4"/>
  <line x1="123" x2="151" y1="89.5" y2="89.5" class="net_4"/>
  <line x1="113" x2="219" y1="32" y2="32" class="net_4"/>
  <line x1="108" x2="151" y1="104.5" y2="104.5" class="net_2"/>
  <line x1="184" x2="194" y1="97" y2="97" class="net_5"/>
  <line x1="194" x2="194" y1="97" y2="124.5" class="net_5"/>
  <line x1="194" x2="52" y1="124.5" y2="124.5" class="net_5"/>
  <line x1="52" x2="52" y1="124.5" y2="24.5" class="net_5"/>
  <circle cx="194" cy="97" r="2" style="fill:#000" class="net_5"/>
  <line x1="52" x2="80" y1="24.5" y2="24.5" class="net_5"/>
  <line x1="184" x2="219" y1="97" y2="97" class="net_5"/>
  <line x1="40" x2="80" y1="39.5" y2="39.5" class="net_3"/>
</svg>
